<?xml version="1.0" standalone="no"?>
<!DOCTYPE svg PUBLIC "-//W3C//DTD SVG 20010904//EN"
 "http://www.w3.org/TR/2001/REC-SVG-20010904/DTD/svg10.dtd">
<svg version="1.0" xmlns="http://www.w3.org/2000/svg"
 width="120.000000pt" height="120.000000pt" viewBox="0 0 120.000000 120.000000"
 preserveAspectRatio="xMidYMid meet">
<metadata>
Created by potrace 1.11, written by Peter Selinger 2001-2013
</metadata>
<g transform="translate(0.000000,120.000000) scale(0.100000,-0.100000)"
fill="#000000" stroke="none">
<path d="M635 1104 c-74 -16 -140 -38 -178 -60 -148 -82 -246 -242 -252 -411
-4 -97 9 -155 50 -240 102 -207 320 -312 551 -265 236 47 408 275 391 517 -5
71 -14 105 -26 105 -4 0 -28 -13 -53 -29 -30 -19 -52 -43 -66 -72 -23 -49 -40
-115 -36 -142 2 -14 -6 -17 -44 -17 -92 -1 -163 -55 -197 -149 -8 -24 -15 -59
-15 -77 0 -19 -3 -34 -6 -34 -6 0 -58 49 -209 197 -55 53 -63 66 -60 92 17
135 83 216 186 228 65 7 74 13 77 50 9 132 92 217 217 222 28 2 -52 46 -118
66 -53 16 -175 27 -212 19z"/>
</g>
</svg>
