<?xml version="1.0" standalone="no"?>
<!DOCTYPE svg PUBLIC "-//W3C//DTD SVG 20010904//EN"
 "http://www.w3.org/TR/2001/REC-SVG-20010904/DTD/svg10.dtd">
<svg version="1.0" xmlns="http://www.w3.org/2000/svg"
 width="400.000000pt" height="400.000000pt" viewBox="0 0 400.000000 400.000000"
 preserveAspectRatio="xMidYMid meet">
<metadata>
Created by potrace 1.11, written by Peter Selinger 2001-2013
</metadata>
<g transform="translate(0.000000,400.000000) scale(0.100000,-0.100000)"
fill="#000000" stroke="none">
<path d="M1604 3856 c-182 -48 -330 -136 -471 -278 -231 -235 -363 -533 -404
-913 -38 -361 90 -754 330 -1006 74 -78 98 -78 121 -2 l15 51 47 -43 c56 -51
130 -94 213 -124 l61 -22 -101 -100 c-56 -54 -109 -99 -118 -99 -9 0 -32 -21
-52 -46 -41 -55 -46 -97 -13 -131 l22 -23 -35 -36 c-19 -19 -50 -45 -69 -56
-19 -11 -57 -42 -85 -69 -56 -54 -225 -170 -237 -163 -4 3 -12 23 -18 44 -14
52 -49 70 -133 70 -88 0 -109 -18 -132 -111 -32 -130 -2 -224 83 -261 52 -23
119 -20 174 8 18 9 68 52 111 96 43 43 89 85 103 94 22 15 26 15 49 0 38 -25
112 -30 162 -12 33 12 48 12 73 3 25 -10 36 -8 65 7 38 21 55 57 55 119 0 42
19 66 53 67 16 0 17 -8 10 -98 -5 -53 -8 -155 -8 -227 l0 -130 46 -3 47 -3 12
-82 c7 -45 16 -89 21 -99 5 -10 2 -42 -7 -81 -19 -77 -10 -107 45 -144 29 -20
47 -23 128 -23 101 0 154 15 172 48 6 12 11 74 10 144 0 71 5 146 13 178 12
48 17 55 40 58 25 3 27 0 38 -55 6 -32 15 -74 19 -93 4 -19 6 -74 3 -121 -5
-100 4 -124 53 -145 45 -19 195 -19 240 0 57 24 69 76 40 171 -8 29 -11 55 -6
64 5 9 14 49 20 90 7 41 14 78 17 82 3 5 22 9 43 9 62 0 63 6 51 202 -5 95
-13 192 -16 216 l-5 42 38 0 c54 -1 73 -19 73 -70 0 -88 57 -147 121 -123 22
9 40 8 75 -3 62 -18 98 -18 141 3 69 32 91 108 54 182 -21 41 -83 101 -128
125 -15 8 -43 30 -62 49 l-34 36 22 27 c26 33 27 63 4 95 -10 13 -23 33 -29
44 -6 11 -24 25 -41 30 -16 6 -72 53 -124 105 -52 53 -116 110 -143 127 l-49
32 29 11 c16 6 30 8 31 3 2 -4 12 -23 23 -41 17 -28 24 -31 47 -26 68 16 195
85 246 133 59 56 67 60 67 34 0 -10 5 -35 11 -55 16 -60 44 -52 123 33 92 100
192 256 232 364 107 285 124 509 64 807 -73 357 -246 652 -490 837 -99 75
-129 93 -230 134 -139 57 -219 70 -378 63 -158 -8 -160 -8 -352 -1 -131 4
-154 3 -236 -19z m-117 -1341 c195 -167 425 -284 646 -330 15 -3 25 -10 22
-15 -8 -13 -298 -13 -310 -1 -16 15 -161 61 -193 61 -16 0 -35 7 -43 16 -24
29 -71 46 -143 51 -60 4 -76 1 -103 -16 -43 -27 -44 -58 -1 -69 l31 -8 -41
-16 -42 -16 0 26 c0 69 75 382 92 382 5 0 43 -29 85 -65z m902 -70 c68 -40
201 -96 297 -124 l71 -21 7 -46 c3 -26 6 -60 6 -77 0 -28 -2 -29 -33 -23 -48
9 -139 55 -110 55 61 2 72 40 21 71 -58 35 -169 23 -239 -26 -23 -16 -43 -23
-48 -18 -4 5 -20 54 -35 109 -16 55 -32 113 -37 129 -12 40 -12 40 17 21 15
-9 52 -32 83 -50z m-661 -283 c62 -23 96 -71 89 -126 -9 -64 -48 -128 -99
-159 -40 -25 -56 -29 -125 -29 -88 0 -133 15 -175 59 -36 38 -48 73 -48 144 0
88 19 113 100 130 53 12 205 0 258 -19z m849 4 c72 -37 79 -169 13 -247 -27
-33 -29 -33 -43 -15 -18 25 -41 12 -33 -19 8 -30 -15 -38 -111 -38 -87 1 -143
27 -186 89 -40 57 -48 138 -17 177 28 35 66 55 132 67 71 12 210 5 245 -14z
m-1518 -148 c23 -51 41 -96 41 -100 0 -29 -112 22 -128 58 -25 54 -5 134 33
134 7 0 31 -42 54 -92z m1009 66 c42 -16 55 -35 71 -99 19 -74 60 -123 131
-158 55 -27 74 -32 140 -31 154 1 251 81 284 235 5 21 13 28 37 31 l31 5 -7
-56 c-4 -31 -8 -72 -9 -91 -1 -33 1 -35 32 -38 17 -2 32 -7 32 -11 0 -19 -71
-81 -130 -113 -149 -82 -558 -208 -676 -208 -51 0 -313 66 -429 108 -213 78
-309 130 -356 195 -37 51 -36 59 1 41 55 -28 64 -18 70 71 l5 80 13 -45 c24
-81 70 -137 142 -173 55 -27 74 -32 140 -31 142 1 227 61 268 191 23 70 42 94
87 106 40 10 85 7 123 -9z m992 -44 c0 -66 -45 -116 -117 -127 -36 -6 -37 -6
-23 14 44 60 126 151 132 147 5 -3 8 -18 8 -34z m-1477 -457 c7 -7 -21 -43
-34 -43 -4 0 -2 11 4 25 12 26 19 30 30 18z m92 -238 c0 -13 -8 -21 -22 -23
-17 -3 -23 2 -23 16 0 10 3 22 7 26 13 13 38 1 38 -19z m683 -3 c3 -16 -2 -22
-17 -22 -24 0 -35 15 -27 36 9 23 40 13 44 -14z m-983 -332 c53 -55 40 -62
-90 -54 -55 4 -101 8 -103 9 -2 2 12 12 30 23 18 11 46 34 62 51 34 35 41 33
101 -29z m1381 29 c16 -17 59 -50 96 -74 68 -45 98 -84 98 -129 0 -57 -84 -73
-157 -30 l-45 26 -23 -22 c-33 -31 -45 -18 -45 46 0 48 -4 59 -30 86 -16 16
-30 32 -30 34 0 7 93 93 101 94 3 0 18 -14 35 -31z m-1618 -161 c-2 -14 -14
-25 -33 -31 -16 -6 -48 -21 -70 -35 -22 -14 -45 -25 -52 -25 -7 0 -10 -3 -8
-6 2 -4 -18 -24 -44 -46 -27 -22 -59 -54 -72 -72 -71 -93 -198 -114 -251 -42
-14 19 -19 42 -19 92 0 77 5 91 30 78 9 -5 46 -8 80 -7 55 2 67 -1 87 -21 38
-38 67 -31 151 33 40 30 147 88 165 89 3 0 10 3 14 8 14 14 25 7 22 -15z m112
-63 c0 -12 -63 -35 -95 -35 -46 0 -45 15 3 28 40 11 92 15 92 7z m91 -10 c-1
-15 -24 -12 -29 3 -3 9 2 13 12 10 10 -1 17 -7 17 -13z"/>
<path d="M1445 2080 c-11 -18 4 -76 26 -104 16 -21 29 -26 62 -26 23 0 47 4
53 8 20 13 45 73 42 100 -3 27 -4 27 -90 30 -55 2 -89 -1 -93 -8z"/>
<path d="M2385 2080 c-9 -15 3 -61 25 -98 17 -28 25 -32 63 -32 57 0 87 31 94
94 l6 46 -91 0 c-51 0 -94 -4 -97 -10z"/>
<path d="M2002 2028 c-5 -7 -13 -24 -17 -38 -4 -14 -14 -34 -21 -45 -20 -28
-17 -51 9 -76 34 -32 68 -43 84 -26 12 12 12 16 -2 30 -9 9 -22 20 -30 25 -13
6 -12 16 5 61 16 41 18 56 9 67 -14 17 -24 18 -37 2z"/>
<path d="M1903 1755 c-11 -30 12 -36 123 -33 101 3 109 4 109 23 0 19 -8 20
-113 23 -95 2 -113 0 -119 -13z"/>
</g>
</svg>
